#!OML:ASF I:\Actors\actors\Patient Classification 1\Patient 1\Session 1\Subject1.ASF
:FULLY-SPECIFIED
:DEGREES
498
root 0.812901 17.1735 8.17084 52.4442 31.724 -8.80279
lowerback 36.6879 1.5669 1.86049
upperback -2.52353 2.72543 -0.662296
thorax -22.0023 0.781655 -3.17114
lowerneck -1.75296 -2.27333 -0.240667
upperneck -24.2145 -0.0894997 13.7292
head -7.03924 -1.01916 4.57235
rclavicle -5.88403e-014 -3.34952e-014
rhumerus -41.6091 22.7925 -81.4341
rradius 148.468
rwrist -51.2707
rhand 64.6795 -60.1008
rfingers 7.12502
rthumb 74.9295 -10.473
lclavicle -5.88403e-014 -3.34952e-014
lhumerus -45.3196 -21.0699 87.3358
lradius 146.544
lwrist 51.4821
lhand 54.124 -15.8391
lfingers 7.12502
lthumb 72.3846 -29.7506
rfemur -48.3439 13.5009 12.1422
rtibia -1.9377
rfoot -28.0953 -41.2409
rtoes 31.526
lfemur -75.6861 28.2153 -67.5519
ltibia -4.87545
lfoot -15.0337 -69.5497
ltoes -23.557
499
root 0.822675 17.1777 8.17471 52.634 31.6559 -8.36066
lowerback 36.6882 1.31157 2.05121
upperback -2.51364 2.47269 -0.693604
thorax -21.9946 0.660798 -3.18337
lowerneck -1.79138 -2.25634 0.0349065
upperneck -23.8629 -0.178377 13.3709
head -6.91785 -1.04787 4.39322
rclavicle 1.98785e-016 8.46823e-014
rhumerus -41.8297 23.2282 -80.3517
rradius 148.545
rwrist -50.7212
rhand 64.6732 -59.182
rfingers 7.12502
rthumb 74.93 -9.57763
lclavicle 1.98785e-016 8.46823e-014
lhumerus -45.7158 -21.051 86.3413
lradius 146.819
lwrist 51.2015
lhand 53.5835 -16.1857
lfingers 7.12502
lthumb 72.0997 -28.6628
rfemur -48.1602 13.2633 11.7847
rtibia -2.08908
rfoot -28.3397 -41.2779
rtoes 31.5735
lfemur -75.333 27.8213 -67.6173
ltibia -4.85981
lfoot -15.3565 -69.3898
ltoes -23.6119
500
root 0.828868 17.1806 8.18299 52.7188 31.4248 -8.17926
lowerback 36.6212 1.22683 2.18161
upperback -2.51198 2.40556 -0.754183
thorax -21.9586 0.616402 -3.28887
lowerneck -1.68546 -2.29913 0.218361
upperneck -23.7647 -0.293474 13.1375
head -6.90137 -1.10525 4.28625
rclavicle -2.44505e-014 5.60573e-014
rhumerus -42.1571 23.4498 -79.4107
rradius 148.606
rwrist -50.7644
rhand 64.2294 -58.5242
rfingers 7.12502
rthumb 74.9592 -10.5661
lclavicle -2.44505e-014 5.60573e-014
lhumerus -46.244 -21.4938 85.4285
lradius 147.131
lwrist 50.871
lhand 52.6806 -16.5857
lfingers 7.12502
lthumb 71.599 -26.7703
rfemur -48.0766 13.3407 11.4647
rtibia -2.20822
rfoot -28.4045 -41.3796
rtoes 31.3538
lfemur -75.2191 27.7094 -67.7474
ltibia -4.86243
lfoot -15.4989 -69.218
ltoes -23.5774
501
root 0.830883 17.1801 8.2015 53.0637 30.8052 -7.97104
lowerback 36.3175 1.47732 1.8053
upperback -2.56522 2.55613 -0.766095
thorax -21.8996 0.718675 -3.16699
lowerneck -1.62729 -2.40151 0.0393826
upperneck -23.82 -0.455956 13.0954
head -6.91444 -1.17217 4.31363
rclavicle 1.51076e-014 -1.13705e-013
rhumerus -42.4922 23.5131 -77.934
rradius 148.726
rwrist -52.105
rhand 63.2541 -58.1367
rfingers 7.12502
rthumb 74.9787 -13.8107
lclavicle 1.51076e-014 -1.13705e-013
lhumerus -46.9255 -22.3951 84.9709
lradius 147.444
lwrist 50.6127
lhand 51.1862 -16.8842
lfingers 7.12502
lthumb 70.7081 -23.5521
rfemur -48.3804 13.5709 10.7411
rtibia -2.22
rfoot -28.432 -41.4783
rtoes 31.1225
lfemur -75.3783 27.6347 -68.3353
ltibia -4.9534
lfoot -15.341 -69.0358
ltoes -23.372
502
root 0.83486 17.1854 8.21591 53.4886 30.3159 -7.54658
lowerback 36.141 1.55608 1.51759
upperback -2.54841 2.52443 -0.785848
thorax -21.8106 0.74153 -3.01102
lowerneck -2.20098 -2.47634 -0.0929514
upperneck -23.5062 -0.655744 12.9745
head -6.69369 -1.21955 4.284
rclavicle -3.57812e-015 8.56265e-014
rhumerus -42.5856 23.0656 -76.9596
rradius 148.794
rwrist -51.3066
rhand 64.3899 -58.01
rfingers 7.12502
rthumb 74.9501 -9.45598
lclavicle -3.57812e-015 8.56265e-014
lhumerus -47.1297 -22.6087 84.9647
lradius 147.443
lwrist 50.3466
lhand 50.6494 -16.7036
lfingers 7.12502
lthumb 70.3708 -22.1895
rfemur -48.6168 13.5135 9.96705
rtibia -2.23771
rfoot -28.5032 -41.5536
rtoes 31.1677
lfemur -75.3312 27.2996 -68.881
ltibia -5.04053
lfoot -15.1945 -68.8707
ltoes -23.1884
503
root 0.843873 17.1875 8.21641 53.3108 30.4005 -7.67803
lowerback 36.2681 1.38047 2.05412
upperback -2.65381 2.53369 -0.798307
thorax -21.9856 0.6747 -3.3315
lowerneck -2.049 -2.51408 0.300132
upperneck -23.2924 -0.767546 12.7191
head -6.65403 -1.28939 4.13065
rclavicle 2.04748e-014 4.48259e-014
rhumerus -43.2399 22.8823 -77.0443
rradius 148.835
rwrist -50.9902
rhand 64.8627 -57.5568
rfingers 7.12502
rthumb 74.9136 -7.25153
lclavicle 2.04748e-014 4.48259e-014
lhumerus -47.3945 -22.3291 85.2012
lradius 147.17
lwrist 50.106
lhand 51.2693 -16.4548
lfingers 7.12502
lthumb 70.7596 -23.3095
rfemur -48.4259 13.6513 10.1048
rtibia -2.3356
rfoot -28.5311 -41.6535
rtoes 31.2527
lfemur -75.3377 27.1946 -68.6105
ltibia -4.86204
lfoot -15.5373 -68.7032
ltoes -23.3223
504
root 0.850628 17.186 8.22061 53.0481 30.3895 -7.96211
lowerback 36.3501 1.30104 2.45793
upperback -2.69843 2.62034 -0.759963
thorax -22.0605 0.660343 -3.55539
lowerneck -2.16992 -2.47054 0.686254
upperneck -23.0292 -0.790115 12.3842
head -6.55785 -1.29563 3.9431
rclavicle 8.74653e-015 -2.03754e-015
rhumerus -43.7221 22.8032 -77.3914
rradius 148.844
rwrist -51.1068
rhand 64.8474 -57.5239
rfingers 7.12502
rthumb 74.915 -7.27511
lclavicle 8.74653e-015 -2.03754e-015
lhumerus -47.4673 -22.1767 85.3067
lradius 146.907
lwrist 50.259
lhand 51.5243 -16.5383
lfingers 7.12502
lthumb 70.916 -23.9724
rfemur -48.2827 13.9902 10.2817
rtibia -2.38591
rfoot -28.4519 -41.8121
rtoes 31.0016
lfemur -75.4768 27.2966 -68.3617
ltibia -4.69473
lfoot -15.864 -68.5489
ltoes -23.5542
505
root 0.857862 17.19 8.229 53.0782 30.2955 -7.78627
lowerback 36.4111 1.24205 2.70372
upperback -2.66116 2.66351 -0.714728
thorax -22.0251 0.653472 -3.65853
lowerneck -2.62169 -2.54025 0.577021
upperneck -22.681 -0.97795 12.2678
head -6.35254 -1.34397 3.91232
rclavicle -3.27995e-014 1.92324e-014
rhumerus -43.9155 22.5352 -77.692
rradius 148.794
rwrist -51.2082
rhand 64.7954 -57.9696
rfingers 7.12502
rthumb 74.9197 -7.91305
lclavicle -3.27995e-014 1.92324e-014
lhumerus -47.5158 -22.494 85.3759
lradius 146.864
lwrist 50.7082
lhand 50.8959 -16.782
lfingers 7.12502
lthumb 70.5268 -22.8056
rfemur -48.2034 13.9392 10.0432
rtibia -2.3777
rfoot -28.441 -41.9463
rtoes 30.7429
lfemur -75.2978 27.0789 -68.3679
ltibia -4.66738
lfoot -15.7894 -68.3917
ltoes -23.5479
506
root 0.857589 17.192 8.23934 53.1423 30.0809 -7.76637
lowerback 36.3114 1.3583 2.82567
upperback -2.52871 2.8887 -0.593758
thorax -21.7843 0.746844 -3.68765
lowerneck -3.61944 -2.71977 0.192993
upperneck -22.2082 -1.35469 12.1841
head -5.99571 -1.44418 3.93296
rclavicle 1.90833e-014 6.11263e-015
rhumerus -43.8035 22.2602 -77.9777
rradius 148.68
rwrist -51.3884
rhand 64.6193 -57.9323
rfingers 7.12502
rthumb 74.9342 -8.52771
lclavicle 1.90833e-014 6.11263e-015
lhumerus -47.3715 -23.0693 85.5094
lradius 146.954
lwrist 51.0717
lhand 49.9381 -17.0945
lfingers 7.12502
lthumb 69.911 -21.0776
rfemur -48.3416 14.1098 9.81083
rtibia -2.25544
rfoot -28.6152 -41.971
rtoes 30.8025
lfemur -75.4651 26.9829 -68.4672
ltibia -4.48308
lfoot -15.695 -68.2041
ltoes -23.4602
507
root 0.861484 17.1938 8.25292 53.1057 29.8104 -7.76125
lowerback 36.3405 1.34884 2.74608
upperback -2.54734 2.86223 -0.508171
thorax -21.8327 0.750457 -3.53389
lowerneck -4.14692 -2.59935 0.332301
upperneck -21.6719 -1.32043 11.8353
head -5.74533 -1.37958 3.76979
rclavicle -9.93923e-015 6.15239e-014
rhumerus -43.9393 22.7264 -79.091
rradius 148.454
rwrist -51.8479
rhand 63.9502 -57.1751
rfingers 7.12502
rthumb 74.9711 -10.2556
lclavicle -9.93923e-015 6.15239e-014
lhumerus -47.6091 -23.0625 85.7105
lradius 147.077
lwrist 51.1535
lhand 49.3857 -17.2199
lfingers 7.12502
lthumb 69.5444 -20.0842
rfemur -48.3448 14.3077 9.53651
rtibia -2.20196
rfoot -28.8281 -41.9969
rtoes 30.9503
lfemur -75.4747 27.0239 -68.5676
ltibia -4.44864
lfoot -15.6673 -68.0468
ltoes -23.3523
508
root 0.863113 17.1982 8.26304 53.1655 29.6457 -7.67636
lowerback 36.334 1.32323 2.76688
upperback -2.60888 2.85898 -0.425467
thorax -21.9158 0.74957 -3.45068
lowerneck -4.87245 -2.48391 0.523551
upperneck -20.7533 -1.35206 11.4031
head -5.34093 -1.32823 3.56238
rclavicle 1.25234e-014 8.74653e-015
rhumerus -43.6062 22.3132 -79.4316
rradius 148.352
rwrist -51.7761
rhand 64.4744 -58.0953
rfingers 7.12502
rthumb 74.9446 -9.22754
lclavicle 1.25234e-014 8.74653e-015
lhumerus -47.4786 -22.7114 86.2227
lradius 146.928
lwrist 51.2178
lhand 49.6215 -16.8988
lfingers 7.12502
lthumb 69.702 -20.2359
rfemur -48.4046 14.3667 9.28237
rtibia -2.15584
rfoot -28.8847 -42.1201
rtoes 30.8415
lfemur -75.467 26.8919 -68.6202
ltibia -4.38608
lfoot -15.6633 -67.8678
ltoes -23.1767
509
root 0.864233 17.2012 8.27403 53.2128 29.4892 -7.63423
lowerback 36.2926 1.33253 2.78036
upperback -2.68962 2.89985 -0.332735
thorax -22.0071 0.766941 -3.37376
lowerneck -5.99138 -2.42733 0.678764
upperneck -19.1944 -1.53618 11.0177
head -4.66662 -1.3217 3.36415
rclavicle 1.35671e-014 -2.88238e-015
rhumerus -43.6274 22.3939 -80.3047
rradius 148.171
rwrist -52.2821
rhand 64.1635 -58.1874
rfingers 7.12502
rthumb 74.9625 -10.4743
lclavicle 1.35671e-014 -2.88238e-015
lhumerus -46.9736 -21.9826 86.9552
lradius 146.509
lwrist 51.2165
lhand 50.5668 -16.3832
lfingers 7.12502
lthumb 70.3182 -21.6911
rfemur -48.4464 14.4753 9.07791
rtibia -2.154
rfoot -28.8965 -42.2319
rtoes 30.6735
lfemur -75.5407 26.7977 -68.648
ltibia -4.22919
lfoot -15.4747 -67.6425
ltoes -22.9093
510
root 0.866974 17.2035 8.28567 53.2672 29.3755 -7.57166
lowerback 36.2341 1.32378 2.82396
upperback -2.76366 2.93911 -0.201047
thorax -22.0824 0.784255 -3.2664
lowerneck -7.42854 -2.39281 0.897091
upperneck -17.2576 -1.81616 10.4788
head -3.83574 -1.34167 3.10466
rclavicle -3.59552e-014 4.008e-014
rhumerus -43.1968 21.8901 -80.431
rradius 148.121
rwrist -51.8532
rhand 64.9852 -59.3665
rfingers 7.12502
rthumb 74.9018 -8.60922
lclavicle -3.59552e-014 4.008e-014
lhumerus -47.4125 -22.311 87.3014
lradius 146.763
lwrist 51.2386
lhand 49.6839 -16.8071
lfingers 7.12502
lthumb 69.7434 -20.2704
rfemur -48.4206 14.5651 8.91431
rtibia -2.21649
rfoot -29.0148 -42.2586
rtoes 30.705
lfemur -75.5266 26.6603 -68.6425
ltibia -4.18141
lfoot -15.1218 -67.4857
ltoes -22.6567
511
root 0.872799 17.2053 8.29643 53.3548 29.3213 -7.43041
lowerback 36.1629 1.27176 3.03458
upperback -2.82533 2.98578 -0.110119
thorax -22.1236 0.782872 -3.29986
lowerneck -9.06001 -2.38647 1.3429
upperneck -15.0109 -2.21866 9.508
head -3.24309 -1.3962 2.93709
rclavicle -1.75365e-014 7.9458e-014
rhumerus -42.8912 21.5715 -80.6459
rradius 148.078
rwrist -51.8644
rhand 65.1813 -60.3154
rfingers 7.12502
rthumb 74.8809 -8.83589
lclavicle -1.75365e-014 7.9458e-014
lhumerus -47.4583 -22.375 87.81
lradius 146.819
lwrist 51.2098
lhand 49.5524 -16.982
lfingers 7.12502
lthumb 69.6559 -20.1796
rfemur -48.358 14.5506 8.74714
rtibia -2.30293
rfoot -29.131 -42.3031
rtoes 30.7711
lfemur -75.3591 26.4448 -68.6015
ltibia -4.2703
lfoot -14.7976 -67.3745
ltoes -22.4678
512
root 0.876865 17.2071 8.30631 53.4444 29.2482 -7.27037
lowerback 36.1149 1.21447 3.25823
upperback -2.88816 3.02138 -0.0653802
thorax -22.1742 0.771239 -3.38907
lowerneck -10.1435 -2.40584 1.5542
upperneck -13.6173 -2.47644 9.00546
head -2.56266 -1.45531 2.65784
rclavicle 1.68967e-014 -1.49461e-014
rhumerus -42.6651 21.4093 -80.8814
rradius 148.018
rwrist -52.0302
rhand 65.4911 -60.7884
rfingers 7.12502
rthumb 74.8429 -8.17225
lclavicle 1.68967e-014 -1.49461e-014
lhumerus -47.2116 -22.2015 88.2549
lradius 146.667
lwrist 51.2313
lhand 50.1973 -16.9742
lfingers 7.12502
lthumb 70.0803 -21.4969
rfemur -48.3366 14.5281 8.54953
rtibia -2.33016
rfoot -29.3197 -42.3587
rtoes 30.987
lfemur -75.2334 26.3064 -68.5553
ltibia -4.24733
lfoot -14.5659 -67.2081
ltoes -22.3486
